<svg width="74" height="74" viewBox="0 0 74 74" fill="none" xmlns="http://www.w3.org/2000/svg">
<g id="noun-earth-3506650 1">
<path id="Vector" d="M69.5592 30.0442C66.3032 14.8002 52.6132 3.7002 36.9992 3.7002C21.3852 3.7002 7.69522 14.8002 4.43922 30.0442C3.92122 32.3382 3.69922 34.7062 3.69922 37.0002C3.69922 43.2902 5.47522 49.5062 8.87922 54.8342C15.0212 64.5282 25.5292 70.3002 36.9992 70.3002C52.0952 70.3002 65.3412 60.0882 69.1892 45.5102V45.4362C69.8552 42.9942 70.2252 40.4042 70.2252 37.8142V37.5922C70.2252 37.4442 70.2252 37.2222 70.2252 37.0742C70.2992 34.7062 70.0772 32.3382 69.5592 30.0442ZM66.8952 31.8202C67.1172 33.3002 67.2652 34.7802 67.3392 36.2602H59.1992C57.9412 36.2602 56.9792 35.2982 56.9792 34.0402C56.9792 32.7822 57.9412 31.8202 59.1992 31.8202H66.8952ZM7.10322 31.8202H16.2792C17.5372 31.8202 18.4992 32.7822 18.4992 34.0402C18.4992 36.9262 20.7932 39.2202 23.6792 39.2202H36.9992C38.2572 39.2202 39.2192 40.1822 39.2192 41.4402C39.2192 42.6982 38.2572 43.6602 36.9992 43.6602H28.1192C25.2332 43.6602 22.9392 45.9542 22.9392 48.8402V50.3202C22.9392 51.5782 21.9772 52.5402 20.7192 52.5402H10.9512C8.13922 47.8782 6.65922 42.4762 6.65922 37.0002C6.65922 35.2982 6.80722 33.5222 7.10322 31.8202ZM29.5992 24.4202C27.1572 24.4202 25.1592 22.4222 25.1592 19.9802H31.0792C33.5212 19.9802 35.5192 21.9782 35.5192 24.4202H29.5992ZM12.9492 55.5002H20.7192C23.6052 55.5002 25.8992 53.2062 25.8992 50.3202V48.8402C25.8992 47.5822 26.8612 46.6202 28.1192 46.6202H36.9992C39.8852 46.6202 42.1792 44.3262 42.1792 41.4402C42.1792 39.0722 40.6252 37.1482 38.4792 36.4822V27.3802H44.3992C48.4692 27.3802 51.7992 24.0502 51.7992 19.9802V18.5002C51.7992 17.6862 51.1332 17.0202 50.3192 17.0202H42.9192C40.4772 17.0202 38.3312 18.2042 36.9992 19.9802C35.6672 18.2042 33.5212 17.0202 31.0792 17.0202H23.6792C22.8652 17.0202 22.1992 17.6862 22.1992 18.5002V19.9802C22.1992 24.0502 25.5292 27.3802 29.5992 27.3802H35.5192V36.2602H23.6792C22.4212 36.2602 21.4592 35.2982 21.4592 34.0402C21.4592 31.1542 19.1652 28.8602 16.2792 28.8602H7.76922C11.3952 15.9102 23.3832 6.6602 36.9992 6.6602C50.6152 6.6602 62.6032 15.9102 66.2292 28.8602H59.1992C56.3132 28.8602 54.0192 31.1542 54.0192 34.0402C54.0192 36.9262 56.3132 39.2202 59.1992 39.2202H67.2652C67.1912 40.7002 66.9692 42.1802 66.5992 43.6602H59.1992C56.3132 43.6602 54.0192 45.9542 54.0192 48.8402C54.0192 50.0982 53.0572 51.0602 51.7992 51.0602H40.1072C37.3692 51.0602 35.0752 53.1322 34.7792 55.7222C34.6312 57.2022 35.1492 58.6082 36.1112 59.7182C37.0732 60.8282 38.4792 61.4202 39.9592 61.4202H41.4392C42.6972 61.4202 43.6592 62.3822 43.6592 63.6402V66.6002C41.5132 67.1182 39.2932 67.3402 36.9992 67.3402C27.5272 67.3402 18.7212 62.9742 12.9492 55.5002ZM38.4792 24.4202C38.4792 21.9782 40.4772 19.9802 42.9192 19.9802H48.8392C48.8392 22.4222 46.8412 24.4202 44.3992 24.4202H38.4792ZM46.6192 65.7862V63.6402C46.6192 60.7542 44.3252 58.4602 41.4392 58.4602H39.9592C39.2932 58.4602 38.7752 58.2382 38.3312 57.7202C37.8872 57.2762 37.7392 56.6102 37.7392 56.0182C37.8132 54.9082 38.8492 54.0202 40.1072 54.0202H51.7992C54.6852 54.0202 56.9792 51.7262 56.9792 48.8402C56.9792 47.5822 57.9412 46.6202 59.1992 46.6202H65.7852C62.7512 55.7962 55.4992 62.8262 46.6192 65.7862Z" fill="url(#paint0_linear_1050_2201)"/>
</g>
<defs>
<linearGradient id="paint0_linear_1050_2201" x1="3.69922" y1="37.0002" x2="76.9212" y2="23.9321" gradientUnits="userSpaceOnUse">
<stop stop-color="#409C51"/>
<stop offset="1" stop-color="#97D0A9"/>
</linearGradient>
</defs>
</svg>
