<svg width="93" height="88" viewBox="0 0 93 88" fill="none" xmlns="http://www.w3.org/2000/svg">
<g id="noun-happy-walking-plant-1110019 1">
<g id="Group">
<path id="Vector" d="M76.6321 16.858C75.8881 15.1998 74.2141 14.0944 72.3541 14.0944C71.7031 14.0944 71.1451 14.1865 70.5871 14.4629C66.5881 16.0289 57.1951 20.727 53.4751 30.5837C54.0331 24.2275 53.3821 15.0156 51.8941 8.65938C51.4291 6.44852 49.4761 4.97461 47.1511 4.97461C44.8261 4.97461 42.7801 6.44852 42.3151 8.47514C40.9201 13.818 39.8041 23.9512 40.3621 31.1364C36.8281 21.4639 27.0631 15.9368 23.0641 14.3708C22.5061 14.1865 21.9481 14.0023 21.2971 14.0023C19.4371 14.0023 17.7631 15.1077 17.0191 16.7659C16.2751 18.424 16.5541 20.3585 17.8561 21.7403C22.6921 27.0832 28.1791 35.0976 29.2021 39.6114H27.9931C27.4351 39.6114 26.9701 39.7957 26.6911 40.2562C26.3191 40.6247 26.2261 41.1774 26.2261 41.638L27.2491 50.5736C27.3421 51.4948 28.0861 52.1396 29.0161 52.1396H30.2251L33.1081 71.3004C33.2941 72.2216 34.0381 72.8664 34.8751 72.8664H40.3621L31.9921 83.0917L29.7601 81.2493C29.0161 80.6044 27.9001 80.6966 27.1561 81.4335C26.5051 82.1705 26.5981 83.2759 27.3421 84.0128L30.9691 87.237C31.3411 87.5134 31.7131 87.6976 32.1781 87.6976C32.2711 87.6976 32.2711 87.6976 32.3641 87.6976C32.8291 87.6976 33.2941 87.4213 33.6661 87.0528L45.1051 73.1428H48.4531L60.5431 82.9074L58.6831 84.934C58.0321 85.671 58.1251 86.7764 58.8691 87.5134C59.2411 87.7897 59.6131 87.974 60.0781 87.974C60.5431 87.974 61.1011 87.7897 61.4731 87.4213L64.5421 84.0128C64.9141 83.6444 65.0071 83.1838 65.0071 82.6311C65.0071 82.1705 64.7281 81.7099 64.3561 81.3414L54.3121 73.2349H58.8691C59.7991 73.2349 60.5431 72.5901 60.6361 71.6689L63.5191 52.5081H64.7281C65.6581 52.5081 66.4021 51.7711 66.4951 50.9421L67.5181 42.0065C67.6111 41.4538 67.4251 40.9932 67.0531 40.6247C66.6811 40.2562 66.2161 39.9799 65.6581 39.9799H64.6351C65.9371 35.3739 71.6101 26.9911 75.9811 22.1088C77.0971 20.4506 77.4691 18.5161 76.6321 16.858ZM62.9611 48.6391H61.7521H31.8061H30.6901L30.0391 43.2962H63.5191L62.9611 48.6391ZM57.1951 69.3659H36.4561L33.9451 52.2317H59.7061L57.1951 69.3659ZM45.3841 9.11997C45.6631 7.92242 48.2671 7.55395 48.6391 9.21209C50.9641 19.6216 50.4061 33.7158 50.4061 39.3351H43.0591C43.0591 39.2429 43.0591 39.2429 43.0591 39.1508C43.0591 39.2429 43.0591 39.3351 43.0591 39.3351H42.9661C43.0591 39.4272 42.9661 18.7004 45.3841 9.11997ZM20.4601 19.4373C19.7161 18.6082 20.6461 17.3186 21.6691 17.7792C27.8071 20.1743 37.4791 26.2541 39.4321 39.4272H32.8291C31.7131 33.5315 24.9241 24.2275 20.4601 19.4373ZM73.0981 19.4373C68.7271 24.3196 62.1241 33.8079 60.8221 39.4272H54.2191C56.1721 26.2541 65.8441 20.1743 71.9821 17.7792C73.0051 17.3186 73.8421 18.6082 73.0981 19.4373Z" fill="url(#paint0_linear_1050_2205)"/>
<path id="Vector_2" d="M54.2194 59.049C55.2424 59.049 56.0794 58.22 56.0794 57.2066C56.0794 56.1933 55.2424 55.3643 54.2194 55.3643C53.1964 55.3643 52.3594 56.1933 52.3594 57.2066C52.3594 58.22 53.1964 59.049 54.2194 59.049Z" fill="url(#paint1_linear_1050_2205)"/>
<path id="Vector_3" d="M39.526 59.049C40.549 59.049 41.386 58.22 41.386 57.2066C41.386 56.1933 40.549 55.3643 39.526 55.3643C38.503 55.3643 37.666 56.1933 37.666 57.2066C37.666 58.22 38.503 59.049 39.526 59.049Z" fill="url(#paint2_linear_1050_2205)"/>
<path id="Vector_4" d="M46.7794 66.6024C48.8254 66.6024 50.5924 65.497 51.4294 63.7467C51.8944 62.8255 51.4294 61.8122 50.5924 61.3516C49.6624 60.891 48.6394 61.3516 48.1744 62.1807C47.9884 62.5492 47.5234 62.9176 46.8724 62.9176C46.2214 62.9176 45.7564 62.5492 45.5704 62.1807C45.1054 61.2595 44.0824 60.891 43.1524 61.3516C42.2224 61.8122 41.8504 62.8255 42.3154 63.7467C42.9664 65.497 44.8264 66.6024 46.7794 66.6024Z" fill="url(#paint3_linear_1050_2205)"/>
</g>
</g>
<defs>
<linearGradient id="paint0_linear_1050_2205" x1="16.6133" y1="46.4743" x2="84.1371" y2="37.6857" gradientUnits="userSpaceOnUse">
<stop stop-color="#409C51"/>
<stop offset="1" stop-color="#97D0A9"/>
</linearGradient>
<linearGradient id="paint1_linear_1050_2205" x1="52.3594" y1="57.2066" x2="56.4503" y2="56.4689" gradientUnits="userSpaceOnUse">
<stop stop-color="#409C51"/>
<stop offset="1" stop-color="#97D0A9"/>
</linearGradient>
<linearGradient id="paint2_linear_1050_2205" x1="37.666" y1="57.2066" x2="41.7569" y2="56.4689" gradientUnits="userSpaceOnUse">
<stop stop-color="#409C51"/>
<stop offset="1" stop-color="#97D0A9"/>
</linearGradient>
<linearGradient id="paint3_linear_1050_2205" x1="42.1152" y1="63.8779" x2="51.9472" y2="60.8164" gradientUnits="userSpaceOnUse">
<stop stop-color="#409C51"/>
<stop offset="1" stop-color="#97D0A9"/>
</linearGradient>
</defs>
</svg>
