<svg width="76" height="90" viewBox="0 0 76 90" fill="none" xmlns="http://www.w3.org/2000/svg">
<g id="noun-plant-1175802 1">
<path id="Vector" d="M68.0647 44.1935C66.5287 41.6512 64.0967 40.1794 61.4087 40.0456C58.4647 39.9118 56.1607 40.9822 54.6247 43.1231L52.3207 45.5316C52.8327 44.3273 52.9607 43.1231 52.9607 41.785C52.8327 38.9751 51.1687 36.4328 48.7367 34.8271C48.3527 34.5595 47.7127 34.5595 47.3287 34.961C45.0247 36.7004 43.8727 39.5103 44.0007 42.3202C44.1287 45.1302 45.7927 47.6725 48.2247 49.2781C48.3527 49.4119 48.4807 49.4119 48.6087 49.4119L41.4407 56.905V32.5525L47.9687 25.7284C48.7367 28.2707 50.6567 30.2778 53.0887 31.3482C54.2407 31.7496 55.3927 32.0172 56.6727 32.0172C58.2087 32.0172 59.7447 31.6158 61.2807 30.813C61.7927 30.5454 62.0487 29.8764 61.9207 29.3411C61.2807 26.665 59.2327 24.3903 56.6727 23.3199C54.7527 22.5171 52.7047 22.3833 50.6567 22.9185L53.8567 19.5733C55.3927 21.179 57.5687 22.5171 59.8727 22.6509C60.0007 22.6509 60.0007 22.6509 60.1287 22.6509C62.6887 22.6509 65.2487 21.3128 66.7847 18.9043C67.0407 18.5029 67.0407 17.8339 66.7847 17.4325C65.2487 14.8902 62.8167 13.4183 60.1287 13.2845C56.9287 13.1507 54.2407 14.3549 52.7047 16.4958C52.9607 15.4254 52.9607 14.4887 52.8327 13.4183C52.4487 10.6084 50.7847 8.19989 48.2247 6.72803C47.7127 6.46042 47.2007 6.59423 46.8167 6.86184C44.7687 8.86892 43.7447 11.6788 44.1287 14.4887C44.5127 17.2987 46.1767 19.7071 48.7367 21.179L41.4407 28.8059V14.6225V14.4887C41.5687 11.6788 40.4167 9.00272 38.3687 7.26325C36.3207 5.52379 33.5047 4.85476 30.9447 5.52379C30.4327 5.65759 30.0487 6.19281 30.0487 6.72803C29.9207 9.53795 31.0727 12.2141 33.1207 13.9535C34.6567 15.2916 36.5767 15.9606 38.4967 15.9606C38.6247 15.9606 38.8807 15.9606 39.0087 15.9606V43.5245L34.9127 39.2427C34.7847 39.1089 34.7847 39.1089 34.6567 38.9751L32.4807 36.7004C35.0407 35.4962 36.8327 33.2215 37.3447 30.4116C37.9847 27.6017 37.0887 24.6579 35.1687 22.5171C34.7847 22.1156 34.2727 21.9818 33.7607 22.2495C31.2007 23.4537 29.2807 25.7284 28.7687 28.5383C28.5127 30.0102 28.5127 31.6158 29.0247 33.0877L27.2327 31.2144C25.5687 28.5383 23.1367 26.7988 20.5767 26.7988C17.8887 26.665 15.3287 28.1369 13.6647 30.5454C13.4087 30.9468 13.4087 31.6158 13.6647 32.0172C15.2007 34.5595 17.6327 36.0314 20.3207 36.1652C20.4487 36.1652 20.5767 36.1652 20.7047 36.1652C23.0087 36.1652 24.8007 35.4962 26.2087 34.0243L29.5367 37.5033C28.5127 37.5033 27.6167 37.6371 26.7207 38.0385C24.0327 38.9751 21.9847 41.116 21.2167 43.7921C21.0887 44.3273 21.2167 44.9964 21.7287 45.264C23.2647 46.2006 24.9287 46.7358 26.7207 46.7358C27.7447 46.7358 28.7687 46.602 29.6647 46.2006C31.5847 45.5316 33.2487 44.0597 34.4007 42.3202L39.1367 47.271V62.7925C33.5047 62.9263 25.4407 64.1305 25.0567 67.8771V68.0109V68.1447C25.0567 68.2785 25.0567 68.2785 25.0567 68.4123C25.0567 68.4123 25.0567 68.4123 25.0567 68.5461C25.0567 68.6799 25.1847 68.9475 25.1847 69.0813L28.3847 81.2576C28.7687 85.4056 39.1367 85.5394 40.2887 85.5394C41.4407 85.5394 51.9367 85.4056 52.1927 81.2576L55.3927 69.0813C55.5207 68.9475 55.5207 68.6799 55.5207 68.5461C55.5207 68.5461 55.5207 68.5461 55.5207 68.4123C55.5207 68.2785 55.5207 68.2785 55.5207 68.1447V68.0109V67.8771C55.1367 64.1305 47.0727 62.9263 41.4407 62.7925V60.6516L47.9687 53.8275C48.7367 56.3698 50.7847 58.5107 53.3447 59.4473C54.3687 59.8487 55.5207 59.9826 56.5447 59.9826C58.2087 59.9826 59.8727 59.5811 61.2807 58.6445C61.7927 58.3769 62.0487 57.7079 61.9207 57.1726C61.1527 54.4965 59.1047 52.2218 56.5447 51.2852C54.6247 50.6162 52.5767 50.4824 50.6567 51.1514L55.5207 46.0668C57.1847 48.0739 59.2327 49.2781 61.2807 49.4119C61.4087 49.4119 61.4087 49.4119 61.5367 49.4119C64.0967 49.4119 66.6567 48.0739 68.1927 45.6654C68.3207 45.264 68.4487 44.7287 68.0647 44.1935ZM46.5607 42.1864C46.4327 40.5808 47.0727 38.9751 48.2247 37.7709C49.5047 38.8413 50.2727 40.3132 50.4007 42.0526C50.5287 43.6583 49.8887 45.264 48.7367 46.4682C47.4567 45.264 46.6887 43.7921 46.5607 42.1864ZM55.6487 25.8622C57.1847 26.5312 58.3367 27.6017 58.9767 28.9397C57.4407 29.4749 55.6487 29.4749 53.9847 28.8059C52.4487 28.1369 51.2967 27.0664 50.6567 25.7284C52.3207 25.1932 54.1127 25.1932 55.6487 25.8622ZM60.0007 15.9606C61.5367 15.9606 63.0727 16.7634 64.0967 18.1015C62.9447 19.3057 61.5367 19.9748 59.8727 19.9748C58.3367 19.9748 56.5447 18.9043 55.3927 17.4325V17.2987C56.8007 16.2282 58.5927 15.9606 60.0007 15.9606ZM46.5607 14.2211C46.3047 12.6155 46.8167 11.0098 47.8407 9.67175C49.2487 10.6084 50.1447 12.2141 50.2727 13.8197C50.5287 15.4254 50.0167 17.031 48.9927 18.3691C47.7127 17.2987 46.8167 15.8268 46.5607 14.2211ZM31.2007 29.0735C31.5847 27.4679 32.4807 25.996 33.8887 25.0594C34.7847 26.3974 35.1687 28.1369 34.7847 29.7425C34.4007 31.3482 33.5047 32.8201 32.0967 33.7567C31.2007 32.4187 30.8167 30.813 31.2007 29.0735ZM28.6407 43.6583C27.1047 44.1935 25.3127 44.1935 23.9047 43.3907C24.6727 41.9188 25.8247 40.8484 27.3607 40.3132C28.8967 39.7779 30.6887 39.7779 32.0967 40.5808C31.4567 42.0526 30.1767 43.1231 28.6407 43.6583ZM20.3207 33.3553C18.7847 33.3553 17.2487 32.5525 16.2247 31.2144C17.3767 30.0102 18.9127 29.3411 20.4487 29.3411C22.1127 29.3411 23.5207 30.5454 24.5447 31.8834C23.5207 32.9539 22.1127 33.3553 20.3207 33.3553ZM34.6567 11.9464C33.5047 11.0098 32.7367 9.53794 32.6087 7.93228C34.1447 7.79848 35.6807 8.3337 36.8327 9.27033C37.9847 10.3408 38.7527 11.6788 38.8807 13.2845C37.3447 13.4183 35.8087 12.8831 34.6567 11.9464ZM49.6327 80.7224C49.6327 80.8562 49.6327 80.8562 49.6327 80.99C49.1207 81.659 45.6647 82.8633 40.1607 82.8633C34.7847 82.8633 31.3287 81.659 30.6887 80.99C30.6887 80.8562 30.6887 80.8562 30.6887 80.7224L28.3847 71.7574C31.7127 73.0955 36.7047 73.4969 40.1607 73.4969C43.6167 73.4969 48.6087 73.0955 51.9367 71.7574L49.6327 80.7224ZM52.9607 68.1447C52.3207 69.2151 47.5847 70.8208 40.1607 70.8208C32.8647 70.8208 28.2567 69.2151 27.4887 68.4123V68.1447C28.0007 67.208 32.2247 65.7362 39.0087 65.4686V68.1447C39.0087 68.9475 39.5207 69.4827 40.2887 69.4827C41.0567 69.4827 41.5687 68.9475 41.5687 68.1447V65.4686C48.2247 65.6024 52.3207 67.208 52.9607 68.1447ZM55.6487 53.8275C57.1847 54.3627 58.3367 55.567 59.1047 56.905C57.5687 57.5741 55.7767 57.5741 54.2407 56.905C52.7047 56.3698 51.5527 55.1656 50.7847 53.8275C52.3207 53.2923 53.9847 53.2923 55.6487 53.8275ZM61.2807 46.7358C59.6167 46.7358 58.2087 45.5316 57.1847 44.1935C58.2087 43.2569 59.6167 42.7217 61.4087 42.7217C62.9447 42.7217 64.4807 43.5245 65.5047 44.8625C64.3527 46.0668 62.8167 46.7358 61.2807 46.7358Z" fill="url(#paint0_linear_1050_2231)"/>
</g>
<defs>
<linearGradient id="paint0_linear_1050_2231" x1="13.4727" y1="45.404" x2="74.8369" y2="37.914" gradientUnits="userSpaceOnUse">
<stop stop-color="#409C51"/>
<stop offset="1" stop-color="#97D0A9"/>
</linearGradient>
</defs>
</svg>
